{
    "asset" : {
        "generator" : "Khronos glTF Blender I/O v3.2.40",
        "version" : "2.0"
    },
    "scene" : 0,
    "scenes" : [
        {
            "name" : "Scene",
            "nodes" : [
                0
            ]
        }
    ],
    "nodes" : [
        {
            "mesh" : 0,
            "name" : "Cone",
            "rotation" : [
                0.7966756224632263,
                -0.04533061757683754,
                -0.601902186870575,
                0.031093785539269447
            ],
            "translation" : [
                0.29241448640823364,
                0.6347894668579102,
                0.5407116413116455
            ]
        }
    ],
    "materials" : [
        {
            "doubleSided" : true,
            "name" : "SVGMat.001",
            "pbrMetallicRoughness" : {
                "baseColorFactor" : [
                    0,
                    0,
                    0,
                    1
                ],
                "metallicFactor" : 0,
                "roughnessFactor" : 0.4000000059604645
            }
        },
        {
            "doubleSided" : true,
            "name" : "SVGMat.002",
            "pbrMetallicRoughness" : {
                "baseColorFactor" : [
                    0,
                    0,
                    0,
                    1
                ],
                "metallicFactor" : 0,
                "roughnessFactor" : 0.4000000059604645
            }
        },
        {
            "doubleSided" : true,
            "name" : "SVGMat.003",
            "pbrMetallicRoughness" : {
                "baseColorFactor" : [
                    0,
                    0,
                    0,
                    1
                ],
                "metallicFactor" : 0,
                "roughnessFactor" : 0.4000000059604645
            }
        },
        {
            "doubleSided" : true,
            "name" : "SVGMat.004",
            "pbrMetallicRoughness" : {
                "baseColorFactor" : [
                    0,
                    0,
                    0,
                    1
                ],
                "metallicFactor" : 0,
                "roughnessFactor" : 0.4000000059604645
            }
        },
        {
            "doubleSided" : true,
            "name" : "SVGMat.005",
            "pbrMetallicRoughness" : {
                "baseColorFactor" : [
                    0,
                    0,
                    0,
                    1
                ],
                "metallicFactor" : 0,
                "roughnessFactor" : 0.4000000059604645
            }
        },
        {
            "doubleSided" : true,
            "name" : "SVGMat.006",
            "pbrMetallicRoughness" : {
                "baseColorFactor" : [
                    0,
                    0,
                    0,
                    1
                ],
                "metallicFactor" : 0,
                "roughnessFactor" : 0.4000000059604645
            }
        },
        {
            "doubleSided" : true,
            "name" : "SVGMat.007",
            "pbrMetallicRoughness" : {
                "baseColorFactor" : [
                    0,
                    0,
                    0,
                    1
                ],
                "metallicFactor" : 0,
                "roughnessFactor" : 0.4000000059604645
            }
        },
        {
            "doubleSided" : true,
            "name" : "SVGMat.008",
            "pbrMetallicRoughness" : {
                "baseColorFactor" : [
                    0,
                    0,
                    0,
                    1
                ],
                "metallicFactor" : 0,
                "roughnessFactor" : 0.4000000059604645
            }
        },
        {
            "doubleSided" : true,
            "name" : "SVGMat.009",
            "pbrMetallicRoughness" : {
                "baseColorFactor" : [
                    0,
                    0,
                    0,
                    1
                ],
                "metallicFactor" : 0,
                "roughnessFactor" : 0.4000000059604645
            }
        },
        {
            "doubleSided" : true,
            "name" : "SVGMat.010",
            "pbrMetallicRoughness" : {
                "baseColorFactor" : [
                    0,
                    0,
                    0,
                    1
                ],
                "metallicFactor" : 0,
                "roughnessFactor" : 0.4000000059604645
            }
        }
    ],
    "meshes" : [
        {
            "name" : "Cone",
            "primitives" : [
                {
                    "attributes" : {
                        "POSITION" : 0,
                        "NORMAL" : 1,
                        "TEXCOORD_0" : 2
                    },
                    "indices" : 3,
                    "material" : 0
                },
                {
                    "attributes" : {
                        "POSITION" : 4,
                        "NORMAL" : 5,
                        "TEXCOORD_0" : 6
                    },
                    "indices" : 7,
                    "material" : 1
                },
                {
                    "attributes" : {
                        "POSITION" : 8,
                        "NORMAL" : 9,
                        "TEXCOORD_0" : 10
                    },
                    "indices" : 11,
                    "material" : 2
                },
                {
                    "attributes" : {
                        "POSITION" : 12,
                        "NORMAL" : 13,
                        "TEXCOORD_0" : 14
                    },
                    "indices" : 15,
                    "material" : 3
                },
                {
                    "attributes" : {
                        "POSITION" : 16,
                        "NORMAL" : 17,
                        "TEXCOORD_0" : 18
                    },
                    "indices" : 19,
                    "material" : 4
                },
                {
                    "attributes" : {
                        "POSITION" : 20,
                        "NORMAL" : 21,
                        "TEXCOORD_0" : 22
                    },
                    "indices" : 23,
                    "material" : 5
                },
                {
                    "attributes" : {
                        "POSITION" : 24,
                        "NORMAL" : 25,
                        "TEXCOORD_0" : 26
                    },
                    "indices" : 27,
                    "material" : 6
                },
                {
                    "attributes" : {
                        "POSITION" : 28,
                        "NORMAL" : 29,
                        "TEXCOORD_0" : 30
                    },
                    "indices" : 31,
                    "material" : 7
                },
                {
                    "attributes" : {
                        "POSITION" : 32,
                        "NORMAL" : 33,
                        "TEXCOORD_0" : 34
                    },
                    "indices" : 35,
                    "material" : 8
                },
                {
                    "attributes" : {
                        "POSITION" : 36,
                        "NORMAL" : 37,
                        "TEXCOORD_0" : 38
                    },
                    "indices" : 39,
                    "material" : 9
                }
            ]
        }
    ],
    "accessors" : [
        {
            "bufferView" : 0,
            "componentType" : 5126,
            "count" : 3950,
            "max" : [
                0.8506508469581604,
                1.125,
                0.8944271802902222
            ],
            "min" : [
                -0.8506507873535156,
                -1.125,
                -0.8944271802902222
            ],
            "type" : "VEC3"
        },
        {
            "bufferView" : 1,
            "componentType" : 5126,
            "count" : 3950,
            "type" : "VEC3"
        },
        {
            "bufferView" : 2,
            "componentType" : 5126,
            "count" : 3950,
            "type" : "VEC2"
        },
        {
            "bufferView" : 3,
            "componentType" : 5123,
            "count" : 4752,
            "type" : "SCALAR"
        },
        {
            "bufferView" : 4,
            "componentType" : 5126,
            "count" : 18471,
            "max" : [
                0.6839800477027893,
                0.5742137432098389,
                -0.2052682638168335
            ],
            "min" : [
                0.04723680019378662,
                -0.025220155715942383,
                -0.775525689125061
            ],
            "type" : "VEC3"
        },
        {
            "bufferView" : 5,
            "componentType" : 5126,
            "count" : 18471,
            "type" : "VEC3"
        },
        {
            "bufferView" : 6,
            "componentType" : 5126,
            "count" : 18471,
            "type" : "VEC2"
        },
        {
            "bufferView" : 7,
            "componentType" : 5123,
            "count" : 22140,
            "type" : "SCALAR"
        },
        {
            "bufferView" : 8,
            "componentType" : 5126,
            "count" : 14946,
            "max" : [
                0.7200629711151123,
                0.5487414002418518,
                0.41776561737060547
            ],
            "min" : [
                0.3211265206336975,
                0.009202063083648682,
                -0.15786412358283997
            ],
            "type" : "VEC3"
        },
        {
            "bufferView" : 9,
            "componentType" : 5126,
            "count" : 14946,
            "type" : "VEC3"
        },
        {
            "bufferView" : 10,
            "componentType" : 5126,
            "count" : 14946,
            "type" : "VEC2"
        },
        {
            "bufferView" : 11,
            "componentType" : 5123,
            "count" : 17904,
            "type" : "SCALAR"
        },
        {
            "bufferView" : 12,
            "componentType" : 5126,
            "count" : 7446,
            "max" : [
                0.3356279730796814,
                0.5271890163421631,
                0.806790292263031
            ],
            "min" : [
                -0.3229213356971741,
                0.0027615129947662354,
                0.4220097064971924
            ],
            "type" : "VEC3"
        },
        {
            "bufferView" : 13,
            "componentType" : 5126,
            "count" : 7446,
            "type" : "VEC3"
        },
        {
            "bufferView" : 14,
            "componentType" : 5126,
            "count" : 7446,
            "type" : "VEC2"
        },
        {
            "bufferView" : 15,
            "componentType" : 5123,
            "count" : 8940,
            "type" : "SCALAR"
        },
        {
            "bufferView" : 16,
            "componentType" : 5126,
            "count" : 140,
            "max" : [
                -0.2824438810348511,
                0.6613256931304932,
                0.4042431712150574
            ],
            "min" : [
                -0.817003071308136,
                -8.761882781982422e-05,
                -0.09071974456310272
            ],
            "type" : "VEC3"
        },
        {
            "bufferView" : 17,
            "componentType" : 5126,
            "count" : 140,
            "type" : "VEC3"
        },
        {
            "bufferView" : 18,
            "componentType" : 5126,
            "count" : 140,
            "type" : "VEC2"
        },
        {
            "bufferView" : 19,
            "componentType" : 5123,
            "count" : 180,
            "type" : "SCALAR"
        },
        {
            "bufferView" : 20,
            "componentType" : 5126,
            "count" : 4143,
            "max" : [
                0.8070983290672302,
                0.001368194818496704,
                0.1071399599313736
            ],
            "min" : [
                0.3229561746120453,
                -0.522442638874054,
                -0.43954896926879883
            ],
            "type" : "VEC3"
        },
        {
            "bufferView" : 21,
            "componentType" : 5126,
            "count" : 4143,
            "type" : "VEC3"
        },
        {
            "bufferView" : 22,
            "componentType" : 5126,
            "count" : 4143,
            "type" : "VEC2"
        },
        {
            "bufferView" : 23,
            "componentType" : 5123,
            "count" : 4974,
            "type" : "SCALAR"
        },
        {
            "bufferView" : 24,
            "componentType" : 5126,
            "count" : 4662,
            "max" : [
                0.2665420472621918,
                -0.044208794832229614,
                -0.4242376685142517
            ],
            "min" : [
                -0.2793940305709839,
                -0.5206588506698608,
                -0.7875673770904541
            ],
            "type" : "VEC3"
        },
        {
            "bufferView" : 25,
            "componentType" : 5126,
            "count" : 4662,
            "type" : "VEC3"
        },
        {
            "bufferView" : 26,
            "componentType" : 5126,
            "count" : 4662,
            "type" : "VEC2"
        },
        {
            "bufferView" : 27,
            "componentType" : 5123,
            "count" : 5592,
            "type" : "SCALAR"
        },
        {
            "bufferView" : 28,
            "componentType" : 5126,
            "count" : 4620,
            "max" : [
                -0.3327900171279907,
                -0.029378890991210938,
                0.13066613674163818
            ],
            "min" : [
                -0.8394184112548828,
                -0.510987401008606,
                -0.4986274540424347
            ],
            "type" : "VEC3"
        },
        {
            "bufferView" : 29,
            "componentType" : 5126,
            "count" : 4620,
            "type" : "VEC3"
        },
        {
            "bufferView" : 30,
            "componentType" : 5126,
            "count" : 4620,
            "type" : "VEC2"
        },
        {
            "bufferView" : 31,
            "componentType" : 5123,
            "count" : 5544,
            "type" : "SCALAR"
        },
        {
            "bufferView" : 32,
            "componentType" : 5126,
            "count" : 10534,
            "max" : [
                -0.031911641359329224,
                0.04534614086151123,
                0.7919541597366333
            ],
            "min" : [
                -0.699242353439331,
                -0.5785975456237793,
                0.20329737663269043
            ],
            "type" : "VEC3"
        },
        {
            "bufferView" : 33,
            "componentType" : 5126,
            "count" : 10534,
            "type" : "VEC3"
        },
        {
            "bufferView" : 34,
            "componentType" : 5126,
            "count" : 10534,
            "type" : "VEC2"
        },
        {
            "bufferView" : 35,
            "componentType" : 5123,
            "count" : 12648,
            "type" : "SCALAR"
        },
        {
            "bufferView" : 36,
            "componentType" : 5126,
            "count" : 6056,
            "max" : [
                0.6887145042419434,
                0.03150030970573425,
                0.7822496891021729
            ],
            "min" : [
                0.0659945011138916,
                -0.5390062928199768,
                0.22519418597221375
            ],
            "type" : "VEC3"
        },
        {
            "bufferView" : 37,
            "componentType" : 5126,
            "count" : 6056,
            "type" : "VEC3"
        },
        {
            "bufferView" : 38,
            "componentType" : 5126,
            "count" : 6056,
            "type" : "VEC2"
        },
        {
            "bufferView" : 39,
            "componentType" : 5123,
            "count" : 7272,
            "type" : "SCALAR"
        }
    ],
    "bufferViews" : [
        {
            "buffer" : 0,
            "byteLength" : 47400,
            "byteOffset" : 0
        },
        {
            "buffer" : 0,
            "byteLength" : 47400,
            "byteOffset" : 47400
        },
        {
            "buffer" : 0,
            "byteLength" : 31600,
            "byteOffset" : 94800
        },
        {
            "buffer" : 0,
            "byteLength" : 9504,
            "byteOffset" : 126400
        },
        {
            "buffer" : 0,
            "byteLength" : 221652,
            "byteOffset" : 135904
        },
        {
            "buffer" : 0,
            "byteLength" : 221652,
            "byteOffset" : 357556
        },
        {
            "buffer" : 0,
            "byteLength" : 147768,
            "byteOffset" : 579208
        },
        {
            "buffer" : 0,
            "byteLength" : 44280,
            "byteOffset" : 726976
        },
        {
            "buffer" : 0,
            "byteLength" : 179352,
            "byteOffset" : 771256
        },
        {
            "buffer" : 0,
            "byteLength" : 179352,
            "byteOffset" : 950608
        },
        {
            "buffer" : 0,
            "byteLength" : 119568,
            "byteOffset" : 1129960
        },
        {
            "buffer" : 0,
            "byteLength" : 35808,
            "byteOffset" : 1249528
        },
        {
            "buffer" : 0,
            "byteLength" : 89352,
            "byteOffset" : 1285336
        },
        {
            "buffer" : 0,
            "byteLength" : 89352,
            "byteOffset" : 1374688
        },
        {
            "buffer" : 0,
            "byteLength" : 59568,
            "byteOffset" : 1464040
        },
        {
            "buffer" : 0,
            "byteLength" : 17880,
            "byteOffset" : 1523608
        },
        {
            "buffer" : 0,
            "byteLength" : 1680,
            "byteOffset" : 1541488
        },
        {
            "buffer" : 0,
            "byteLength" : 1680,
            "byteOffset" : 1543168
        },
        {
            "buffer" : 0,
            "byteLength" : 1120,
            "byteOffset" : 1544848
        },
        {
            "buffer" : 0,
            "byteLength" : 360,
            "byteOffset" : 1545968
        },
        {
            "buffer" : 0,
            "byteLength" : 49716,
            "byteOffset" : 1546328
        },
        {
            "buffer" : 0,
            "byteLength" : 49716,
            "byteOffset" : 1596044
        },
        {
            "buffer" : 0,
            "byteLength" : 33144,
            "byteOffset" : 1645760
        },
        {
            "buffer" : 0,
            "byteLength" : 9948,
            "byteOffset" : 1678904
        },
        {
            "buffer" : 0,
            "byteLength" : 55944,
            "byteOffset" : 1688852
        },
        {
            "buffer" : 0,
            "byteLength" : 55944,
            "byteOffset" : 1744796
        },
        {
            "buffer" : 0,
            "byteLength" : 37296,
            "byteOffset" : 1800740
        },
        {
            "buffer" : 0,
            "byteLength" : 11184,
            "byteOffset" : 1838036
        },
        {
            "buffer" : 0,
            "byteLength" : 55440,
            "byteOffset" : 1849220
        },
        {
            "buffer" : 0,
            "byteLength" : 55440,
            "byteOffset" : 1904660
        },
        {
            "buffer" : 0,
            "byteLength" : 36960,
            "byteOffset" : 1960100
        },
        {
            "buffer" : 0,
            "byteLength" : 11088,
            "byteOffset" : 1997060
        },
        {
            "buffer" : 0,
            "byteLength" : 126408,
            "byteOffset" : 2008148
        },
        {
            "buffer" : 0,
            "byteLength" : 126408,
            "byteOffset" : 2134556
        },
        {
            "buffer" : 0,
            "byteLength" : 84272,
            "byteOffset" : 2260964
        },
        {
            "buffer" : 0,
            "byteLength" : 25296,
            "byteOffset" : 2345236
        },
        {
            "buffer" : 0,
            "byteLength" : 72672,
            "byteOffset" : 2370532
        },
        {
            "buffer" : 0,
            "byteLength" : 72672,
            "byteOffset" : 2443204
        },
        {
            "buffer" : 0,
            "byteLength" : 48448,
            "byteOffset" : 2515876
        },
        {
            "buffer" : 0,
            "byteLength" : 14544,
            "byteOffset" : 2564324
        }
    ],
    "buffers" : [
        {
            "byteLength" : 2578868,
            "uri" : "data:application/octet-stream;base64,"
        }
    ]
}
